<svg width="73" height="70" viewBox="0 0 73 70" fill="none" xmlns="http://www.w3.org/2000/svg">
<path d="M34.7471 1.97227C35.3458 0.129651 37.9526 0.129644 38.5513 1.97227L45.6507 23.8221C45.9185 24.6461 46.6864 25.2041 47.5529 25.2041H70.5271C72.4646 25.2041 73.2701 27.6833 71.7027 28.8221L53.1161 42.3261C52.4151 42.8353 52.1218 43.7381 52.3896 44.5621L59.489 66.4119C60.0877 68.2546 57.9788 69.7868 56.4113 68.648L37.8248 55.1441C37.1238 54.6348 36.1746 54.6348 35.4736 55.1441L16.887 68.648C15.3196 69.7868 13.2106 68.2546 13.8093 66.412L20.9088 44.5621C21.1765 43.7381 20.8832 42.8353 20.1822 42.326L1.59566 28.8221C0.0282316 27.6833 0.833787 25.2041 2.77123 25.2041H25.7455C26.612 25.2041 27.3799 24.6462 27.6476 23.8221L34.7471 1.97227Z" fill="black"/>
</svg>
