<svg width="88" height="88" viewBox="0 0 88 88" fill="none" xmlns="http://www.w3.org/2000/svg">
<g clip-path="url(#clip0)">
<path d="M84.1885 59.7139H3.4033C2.56123 59.7139 1.83327 60.0254 1.21805 60.647C0.603509 61.2684 0.295898 62.0064 0.295898 62.8577V75.4279C0.295898 76.2779 0.603509 77.0159 1.21822 77.6375C1.83395 78.2591 2.56225 78.5711 3.40347 78.5711H84.1887C85.0294 78.5711 85.7585 78.2593 86.3737 77.6375C86.9883 77.0161 87.2962 76.2781 87.2962 75.4279V62.8577C87.2962 62.0064 86.9883 61.2684 86.3737 60.6468C85.7583 60.0252 85.0292 59.7139 84.1885 59.7139ZM81.0814 72.286H50.0117V65.9997H81.0828V72.286H81.0814Z" fill="black"/>
<path d="M84.1885 34.5718H3.4033C2.56123 34.5718 1.83327 34.8829 1.21805 35.505C0.603509 36.1268 0.295898 36.8635 0.295898 37.7144V50.2853C0.295898 51.1363 0.603509 51.8733 1.21822 52.4949C1.83395 53.1165 2.56225 53.4285 3.40347 53.4285H84.1887C85.0294 53.4285 85.7585 53.1167 86.3737 52.4949C86.9883 51.8735 87.2962 51.1365 87.2962 50.2853V37.7144C87.2962 36.8635 86.9883 36.127 86.3737 35.505C85.7583 34.8828 85.0292 34.5718 84.1885 34.5718ZM81.0804 47.1432H31.3678V40.8578H81.0804V47.1432Z" fill="black"/>
<path d="M86.3736 10.3616C85.7585 9.74037 85.0294 9.42871 84.1885 9.42871H3.4033C2.56123 9.42871 1.83327 9.74037 1.21805 10.3616C0.603509 10.9838 0.295898 11.7208 0.295898 12.5718V25.1424C0.295898 25.9941 0.603509 26.7308 1.21822 27.3526C1.83395 27.9747 2.56225 28.2855 3.40347 28.2855H84.1887C85.0294 28.2855 85.7585 27.9747 86.3737 27.3526C86.9883 26.7308 87.2962 25.9941 87.2962 25.1424V12.5718C87.2959 11.7208 86.9881 10.9843 86.3736 10.3616ZM81.0804 22.0005H62.4386V15.7144H81.0804V22.0005Z" fill="black"/>
</g>
<defs>
<clipPath id="clip0">
<rect x="0.295898" width="87" height="88" fill="white"/>
</clipPath>
</defs>
</svg>
